<?xml version="1.0" standalone="no"?>
<!DOCTYPE svg PUBLIC "-//W3C//DTD SVG 20010904//EN"
 "http://www.w3.org/TR/2001/REC-SVG-20010904/DTD/svg10.dtd">
<svg version="1.0" xmlns="http://www.w3.org/2000/svg"
 width="1024.000000pt" height="1024.000000pt" viewBox="0 0 1024.000000 1024.000000"
 preserveAspectRatio="xMidYMid meet">

<g transform="translate(0.000000,1024.000000) scale(0.100000,-0.100000)"
fill="#000000" stroke="none">
<path d="M6803 7245 c0 -8 4 -12 9 -9 5 3 6 -7 2 -23 -4 -15 -11 -29 -15 -31
-5 -2 -6 -16 -3 -31 4 -18 1 -32 -7 -36 -9 -6 -11 -3 -6 8 3 10 3 17 -2 17 -4
0 -6 -35 -3 -77 6 -105 -9 -155 -62 -208 -46 -46 -133 -85 -190 -85 -50 0
-128 27 -172 58 -53 39 -95 119 -103 198 -4 35 -4 65 0 66 4 2 11 15 14 31 6
23 4 26 -9 21 -12 -4 -15 -13 -10 -27 6 -20 6 -20 -10 -4 -10 9 -22 15 -27 12
-9 -6 -13 7 -10 37 1 9 -2 19 -8 22 -5 4 -7 -3 -3 -16 3 -14 1 -19 -6 -14 -7
4 -15 -14 -23 -48 -54 -241 149 -469 392 -442 170 20 296 128 330 284 13 63
-1 171 -32 243 -23 52 -46 79 -46 54z"/>
<path d="M5384 6932 c3 -2 -1 -11 -9 -19 -8 -8 -15 -24 -16 -36 0 -12 -2 -30
-4 -40 -6 -32 21 -114 49 -151 15 -20 47 -47 72 -62 39 -23 53 -26 117 -22 92
5 144 35 187 110 23 41 30 65 30 108 0 71 -10 88 -35 60 -10 -11 -24 -20 -32
-20 -7 0 -13 -11 -13 -25 0 -99 -133 -148 -234 -86 -18 12 -36 18 -40 14 -4
-4 -4 1 0 11 5 14 4 17 -5 12 -10 -6 -12 8 -9 62 2 39 6 68 11 65 4 -2 7 1 7
6 0 6 -8 12 -17 12 -10 1 -28 3 -41 4 -12 1 -20 0 -18 -3z"/>
<path d="M3329 6697 c-35 -40 -112 -50 -146 -18 -25 24 -42 27 -44 9 -1 -7 -2
-20 -3 -28 -2 -24 35 -59 74 -70 65 -17 142 17 166 75 18 44 18 52 -4 57 -11
3 -27 -6 -43 -25z"/>
<path d="M7285 6605 c-104 -37 -125 -175 -38 -239 15 -11 49 -22 79 -24 68 -6
115 21 138 78 21 52 20 65 -5 116 -15 31 -32 48 -63 63 -49 24 -58 25 -111 6z
m93 -77 c20 -20 15 -76 -7 -88 -27 -14 -54 -13 -75 3 -21 16 -24 60 -6 82 15
18 71 20 88 3z"/>
<path d="M3610 6576 c0 -10 -4 -15 -9 -11 -9 5 -22 -22 -26 -55 -1 -8 -7 -26
-12 -40 -38 -94 -39 -293 -3 -434 75 -292 341 -539 650 -601 102 -21 302 -16
395 9 86 23 230 97 302 156 35 28 88 81 119 118 62 76 146 237 169 327 33 127
29 330 -10 446 -8 24 -13 34 -11 22 2 -13 1 -23 -4 -23 -4 0 -11 -12 -14 -26
-5 -20 -12 -25 -26 -21 -11 3 -18 1 -14 -4 3 -5 -3 -9 -13 -9 -17 0 -18 -9
-15 -115 5 -142 -14 -238 -69 -350 -22 -44 -45 -89 -52 -100 -49 -82 -171
-192 -265 -239 -108 -55 -177 -70 -307 -70 -143 1 -212 17 -340 80 -277 136
-438 447 -382 739 8 44 19 89 23 99 5 14 4 17 -4 12 -8 -5 -12 1 -12 15 0 18
2 19 15 9 9 -8 15 -8 15 -2 0 6 -7 17 -15 26 -8 8 -15 22 -15 30 0 9 -6 16
-12 16 -7 0 -23 3 -35 6 -17 5 -23 2 -23 -10z"/>
<path d="M2875 6130 c3 -6 -1 -10 -10 -10 -9 0 -13 -5 -10 -11 4 -6 -2 -19
-14 -30 -29 -27 -29 -123 -2 -178 42 -81 139 -131 232 -118 55 7 125 51 156
98 44 66 43 206 -1 206 -9 0 -16 -4 -16 -8 0 -3 -8 -9 -18 -11 -15 -4 -17 -13
-14 -42 4 -38 -14 -96 -30 -96 -5 0 -7 -4 -4 -9 3 -4 -26 -9 -65 -10 -73 -2
-107 11 -136 48 -10 13 -11 12 -6 -9 4 -14 14 -30 22 -37 9 -6 14 -14 11 -17
-4 -3 -18 6 -33 19 -34 32 -48 87 -37 144 9 50 5 67 -16 75 -9 3 -12 1 -9 -4z"/>
<path d="M7335 5790 c3 -5 8 -10 11 -10 2 0 4 5 4 10 0 6 -5 10 -11 10 -5 0
-7 -4 -4 -10z"/>
<path d="M7351 5728 c-1 -51 2 -48 -63 -52 -33 -3 -47 -37 -41 -96 7 -77 -13
-231 -43 -320 -46 -135 -109 -235 -214 -340 -106 -106 -193 -161 -325 -206
-68 -23 -101 -28 -225 -32 -165 -5 -264 13 -386 68 -219 99 -408 320 -476 557
-19 65 -23 102 -23 225 0 107 -3 149 -12 152 -7 3 -15 1 -18 -4 -7 -12 -36 -2
-52 18 -11 13 -13 13 -13 1 0 -12 -2 -12 -10 1 -24 38 -34 -26 -33 -200 1
-123 5 -158 27 -235 103 -360 405 -643 755 -709 121 -23 324 -21 430 4 337 81
619 350 716 685 44 153 51 359 16 495 l-9 35 -1 -47z m-1914 -80 c-3 -8 -6 -5
-6 6 -1 11 2 17 5 13 3 -3 4 -12 1 -19z"/>
<path d="M7231 5684 c0 -11 3 -14 6 -6 3 7 2 16 -1 19 -3 4 -6 -2 -5 -13z"/>
<path d="M3135 5608 c-84 -16 -191 -73 -254 -138 -104 -105 -151 -226 -151
-385 1 -457 572 -679 893 -347 115 120 170 274 147 415 -12 77 -42 166 -72
216 -36 59 -128 149 -184 181 -102 59 -253 82 -379 58z m268 -128 c75 -29 174
-119 209 -192 83 -172 54 -343 -79 -477 -84 -84 -145 -106 -288 -106 -104 0
-114 2 -175 32 -85 41 -155 111 -194 193 -29 61 -31 72 -31 175 0 104 2 113
32 170 55 104 144 181 253 217 74 24 193 19 273 -12z"/>
<path d="M3930 4635 c0 -9 6 -12 15 -9 8 4 15 7 15 9 0 2 -7 5 -15 9 -9 3 -15
0 -15 -9z"/>
<path d="M2585 4385 c-22 -8 -41 -15 -42 -15 -1 0 -14 -17 -28 -37 l-25 -38 0
-470 c0 -518 -1 -512 63 -559 27 -20 42 -21 255 -21 l227 0 63 29 c80 37 152
114 182 194 18 46 21 72 18 137 -5 90 -21 130 -76 187 l-36 38 26 27 c55 59
73 111 73 208 0 78 -4 97 -28 147 -33 67 -90 121 -166 157 -54 25 -63 26 -261
28 -161 2 -214 0 -245 -12z m403 -311 c26 -18 29 -60 5 -86 -13 -15 -32 -18
-108 -18 l-92 0 -7 31 c-3 17 -6 44 -6 60 l0 29 93 0 c68 0 99 -4 115 -16z
m12 -424 c28 -28 25 -64 -7 -90 -23 -18 -38 -20 -117 -18 l-91 3 -3 63 -3 62
101 0 c87 0 103 -3 120 -20z"/>
<path d="M3481 4382 c-72 -36 -76 -49 -79 -280 -4 -286 9 -501 37 -572 55
-146 216 -250 386 -250 203 0 359 89 433 247 l27 58 3 355 c2 341 2 356 -18
388 -56 91 -192 95 -252 7 -10 -15 -14 -91 -18 -315 -5 -272 -7 -298 -25 -329
-29 -49 -67 -73 -122 -78 -57 -6 -105 21 -137 77 -20 33 -21 55 -26 330 -4
218 -8 301 -18 318 -33 57 -124 79 -191 44z"/>
<path d="M4511 4383 c-19 -10 -44 -31 -55 -46 -21 -28 -21 -39 -21 -480 0
-434 1 -453 20 -486 11 -19 33 -43 48 -55 27 -20 40 -21 260 -21 l232 0 60 28
c73 34 128 85 163 152 22 43 26 63 27 140 0 101 -18 154 -75 214 l-31 34 29
31 c55 57 67 92 67 191 0 69 -4 98 -19 125 -38 71 -86 119 -154 152 l-66 33
-226 3 c-200 3 -229 1 -259 -15z m417 -289 c26 -18 28 -50 5 -76 -13 -15 -32
-18 -110 -18 l-93 0 0 55 0 55 88 0 c63 0 94 -4 110 -16z m14 -411 c18 -16 23
-49 10 -69 -16 -24 -55 -34 -136 -34 l-86 0 0 60 0 60 97 0 c76 0 100 -4 115
-17z"/>
<path d="M5455 4386 c-45 -19 -83 -70 -90 -119 -4 -23 -5 -229 -3 -457 4 -556
-19 -520 329 -520 188 0 225 3 281 20 126 39 207 142 216 276 6 91 -15 156
-68 217 l-40 45 32 33 c66 71 89 169 64 270 -30 118 -108 201 -220 234 -67 20
-456 21 -501 1z m392 -287 c32 -12 43 -26 43 -56 0 -34 -29 -43 -134 -43 l-96
0 0 48 c0 27 3 52 7 55 10 11 149 8 180 -4z m18 -411 c14 -6 25 -15 25 -19 0
-4 3 -14 6 -23 3 -9 -5 -26 -20 -41 -23 -23 -32 -25 -121 -25 l-95 0 0 60 0
60 90 0 c49 0 101 -5 115 -12z"/>
<path d="M7130 4378 c-26 -14 -53 -37 -65 -58 -19 -34 -20 -50 -19 -496 2
-511 1 -509 68 -557 30 -21 41 -22 284 -25 l254 -3 44 44 c41 41 44 48 44 97
0 49 -3 56 -44 96 l-43 44 -152 0 -151 0 0 70 0 70 149 0 c137 0 151 2 182 23
79 53 87 147 19 221 l-39 41 -154 3 -155 3 -4 69 -3 68 145 4 c162 4 196 14
230 71 27 43 26 121 0 165 -39 63 -76 72 -325 72 -209 0 -223 -1 -265 -22z"/>
<path d="M6380 4368 c-18 -13 -41 -39 -52 -58 -17 -33 -18 -60 -16 -460 l3
-425 27 -47 c47 -79 78 -88 304 -88 160 0 194 3 224 18 52 26 80 74 80 139 0
49 -4 58 -39 96 l-40 42 -135 3 -135 4 -3 351 c-3 350 -3 352 -26 385 -46 64
-130 82 -192 40z"/>
<path d="M4099 3032 c-129 -67 -157 -234 -57 -341 66 -70 178 -91 268 -50 76
35 80 41 80 141 l0 88 -85 0 c-82 0 -86 -1 -97 -26 -17 -36 0 -58 46 -62 27
-2 36 -8 36 -21 0 -44 -81 -59 -137 -26 -133 78 -37 267 114 227 61 -17 81
-15 93 8 29 54 -24 90 -133 90 -62 0 -84 -5 -128 -28z"/>
<path d="M4688 3043 c-27 -33 -158 -351 -158 -386 0 -21 45 -40 76 -33 13 4
27 21 37 46 l15 40 91 0 91 0 20 -40 c19 -36 24 -40 60 -40 75 0 73 11 -37
260 -75 172 -74 170 -132 170 -33 0 -52 -5 -63 -17z m91 -173 c12 -30 21 -58
21 -62 0 -5 -25 -8 -56 -8 -49 0 -55 2 -49 18 4 9 16 41 27 70 11 30 24 50 28
45 5 -4 18 -33 29 -63z"/>
<path d="M5143 3053 c-10 -3 -13 -55 -13 -209 l0 -204 26 -10 c18 -7 34 -7 52
2 26 13 27 16 32 126 l5 113 49 -116 c53 -125 71 -144 120 -125 23 9 48 51 81
140 39 104 40 104 45 -20 l5 -115 38 -3 c66 -6 67 -2 67 207 0 136 -3 192 -13
205 -10 14 -25 17 -72 14 l-59 -3 -48 -125 c-26 -69 -51 -134 -56 -144 -7 -16
-13 -7 -36 50 -15 38 -44 104 -63 146 l-36 78 -56 -1 c-31 0 -62 -3 -68 -6z"/>
<path d="M5831 3046 c-8 -9 -11 -74 -9 -212 l3 -199 134 -3 c142 -3 161 2 161
44 0 34 -28 44 -119 44 l-81 0 0 35 0 35 63 0 c70 0 87 10 87 52 0 36 -24 48
-94 48 l-56 0 0 35 0 35 74 0 c93 0 126 11 126 43 0 48 -26 57 -157 57 -90 0
-123 -3 -132 -14z"/>
<path d="M3633 2908 c-102 -26 -74 -178 32 -178 79 0 121 87 71 147 -29 35
-57 43 -103 31z"/>
<path d="M6460 2912 c-80 -21 -103 -100 -48 -159 24 -25 75 -31 110 -12 26 14
49 69 41 100 -12 48 -62 83 -103 71z"/>
</g>
</svg>
